<?xml version="1.0" encoding="UTF-8"?>
<svg width="20px" height="24px" viewBox="0 0 20 24" version="1.1" xmlns="http://www.w3.org/2000/svg" xmlns:xlink="http://www.w3.org/1999/xlink">
    <!-- Generator: Sketch 41.2 (35397) - http://www.bohemiancoding.com/sketch -->
    <title>Coins</title>
    <desc>Created with Sketch.</desc>
    <defs></defs>
    <g id="en" stroke="none" stroke-width="1" fill="none" fill-rule="evenodd">
        <g id="路线详情_web" transform="translate(-872.000000, -1069.000000)" fill="#848484">
            <g id="total_price" transform="translate(872.000000, 1069.000000)">
                <path d="M14.8130867,6.67928618 C13.0839305,6.67928618 11.5169694,7.15670833 10.5532411,7.90809913 L10.5532411,3.21132866 C10.5532411,1.41030272 8.27917569,0 5.30022774,0 C2.32183525,0 0,1.41030272 0,3.21132866 C0,-3.48009537 0,17.0820027 0,17.0820027 L0,17.1958674 L0.00888740765,17.1958674 C0.104982503,18.941406 2.38515803,20.2939094 5.30022774,20.2939094 L5.30189413,20.2939094 L5.30467144,19.5529225 L5.30022774,20.7852034 L5.30022774,20.901958 L5.30855968,20.901958 C5.40521024,22.6480746 7.69649503,24 10.6115647,24 C13.5610732,24 15.8729101,22.6168629 15.919569,20.8424247 L15.9240127,20.8424247 L15.9240127,19.9684994 C18.3230573,19.670833 19.955563,18.4235243 19.9955563,16.8791272 L20,16.8791272 L20,9.89003685 C20,8.0895889 17.7920347,6.67928618 14.8130867,6.67928618 L14.8130867,6.67928618 Z M10.6115647,20.5320425 C8.1980781,20.5320425 6.50336055,19.5032151 6.41837472,18.5512607 L6.41948564,18.4073405 C6.42504027,18.3350914 6.44059323,18.2628423 6.46336722,18.1905932 C7.4298728,18.9171303 8.9151808,19.3760566 10.6115647,19.3760566 C12.3101705,19.3760566 13.7977004,18.9165523 14.763095,18.1882812 C14.7936455,18.2796041 14.8130867,18.3761289 14.8130867,18.4772777 C14.8130867,19.4488838 13.0867078,20.5320425 10.6115647,20.5320425 L10.6115647,20.5320425 Z M14.8130867,16.165306 C14.8130867,17.1369121 13.0867078,18.2200708 10.6115647,18.2200708 C8.25751264,18.2200708 6.58556907,17.2415288 6.4261512,16.3103822 L6.42726212,16.165306 L6.4111537,16.165306 C6.4111537,15.1931219 8.13586624,14.1099632 10.6115647,14.1099632 C13.0867078,14.1099632 14.8130867,15.1931219 14.8130867,16.165306 L14.8130867,16.165306 Z M5.30022774,14.5139802 C2.86729989,14.5139802 1.16369494,13.468391 1.10481586,12.5100788 L1.10537133,12.404884 C1.10981503,12.327433 1.12592346,12.2494039 1.15147475,12.1719529 C2.11686941,12.899068 3.60328834,13.3579944 5.30022774,13.3579944 C6.9977226,13.3579944 8.48358607,12.899068 9.44953619,12.1719529 C9.48119758,12.2678997 9.50119425,12.3632685 9.50119425,12.4592154 C9.50119425,12.655733 9.42676221,12.8574525 9.29345109,13.0539701 C7.92590124,13.2580016 6.78609121,13.7729933 6.07898684,14.4752547 C5.82791757,14.4989524 5.56962728,14.5139802 5.30022774,14.5139802 L5.30022774,14.5139802 Z M9.9550075,12.979987 C9.93778815,12.981143 9.92167972,12.982877 9.90501583,12.9846109 C9.92167972,12.982877 9.93778815,12.981143 9.9550075,12.979987 L9.9550075,12.979987 Z M1.15203022,7.54858753 C2.11742487,8.27512463 3.60328834,8.73405101 5.30022774,8.73405101 C6.99716714,8.73405101 8.48303061,8.27512463 9.44898073,7.54858753 C9.48008665,7.64395636 9.50119425,7.73932519 9.50119425,7.83527202 C9.50119425,8.80687812 7.77592623,9.89003685 5.30022774,9.89003685 C2.90951508,9.89003685 1.22368494,8.88028322 1.11037049,7.93526479 L1.11037049,7.73354526 C1.11759151,7.67170002 1.13147809,7.60985478 1.15203022,7.54858753 L1.15203022,7.54858753 Z M1.11314781,5.64814681 L1.11314781,5.40943573 C1.12092429,5.35163644 1.13314448,5.29383715 1.15203022,5.23661585 C2.11798034,5.96315295 3.60328834,6.42207933 5.30022774,6.42207933 C6.99883353,6.42207933 8.48580792,5.96199697 9.45175804,5.23430388 C9.4823085,5.32562676 9.50119425,5.42215158 9.50119425,5.52330034 C9.50119425,6.49490644 7.77592623,7.57806517 5.30022774,7.57806517 C2.93062267,7.57806517 1.25256902,6.58622932 1.11314781,5.64814681 L1.11314781,5.64814681 Z M1.15036383,9.85882523 C2.11575848,10.5865183 3.60217741,11.0460227 5.30022774,11.0460227 C6.99716714,11.0460227 8.48303061,10.5870963 9.44898073,9.86055921 C9.48008665,9.95535005 9.50119425,10.0512969 9.50119425,10.1472437 C9.50119425,11.1188498 7.77592623,12.2020085 5.30022774,12.2020085 C2.88840749,12.2020085 1.19368994,11.1743371 1.10759318,10.2229608 L1.10759318,10.0588108 C1.1148142,9.99234159 1.12814531,9.92529442 1.15036383,9.85882523 L1.15036383,9.85882523 Z M5.30022774,1.15598584 C7.77592623,1.15598584 9.50119425,2.23914457 9.50119425,3.21132866 C9.50119425,4.18293476 7.77592623,5.26609349 5.30022774,5.26609349 C2.95173027,5.26609349 1.28089763,4.29159743 1.11592512,3.36102883 L1.11592512,3.21132866 L1.09926123,3.21132866 C1.09926123,2.23914457 2.82452925,1.15598584 5.30022774,1.15598584 L5.30022774,1.15598584 Z M5.30022774,18.4772777 C5.30022774,18.5102232 5.3068933,18.5431688 5.30744876,18.5761144 L5.30578237,19.1379236 L5.30022774,19.1379236 C2.82564017,19.1379236 1.10092762,18.0559208 1.09926123,17.0843147 L1.09926123,17.0825807 C1.0998167,16.981432 1.1192579,16.8860631 1.14980837,16.7947403 C2.11575848,17.5224334 3.60217741,17.9819377 5.30022774,17.9819377 C5.30356052,17.9819377 5.3068933,17.9813597 5.31022607,17.9813597 L5.30855968,18.3980926 C5.30744876,18.4246803 5.30022774,18.45069 5.30022774,18.4772777 L5.30022774,18.4772777 Z M5.31078154,17.7906221 L5.31355885,16.8253739 C5.30911515,16.8253739 5.30522691,16.8259519 5.30022774,16.8259519 C2.84674776,16.8259519 1.13258901,15.7618669 1.10203855,14.7971967 L1.10259401,14.7474893 C1.10481586,14.6596344 1.12314614,14.5717795 1.15203022,14.4845026 C2.11798034,15.2110397 3.60328834,15.669966 5.30022774,15.669966 C5.32300172,15.669966 5.34466478,15.6676541 5.36743876,15.6676541 L5.36743876,15.6664981 C5.32744543,15.8294921 5.30022774,15.9947981 5.30022774,16.165306 C5.30022774,16.2300412 5.30967061,16.2936204 5.31522524,16.3583556 L5.31078154,17.7906221 L5.31078154,17.7906221 Z M5.62961729,15.0411097 C5.62961729,15.0416877 5.62906182,15.0416877 5.62906182,15.0422657 C5.62906182,15.0416877 5.62961729,15.0416877 5.62961729,15.0411097 L5.62961729,15.0411097 Z M10.6115647,22.8440142 C8.1380881,22.8440142 6.4155974,21.7637454 6.4111537,20.7927173 L6.4111537,20.7852034 C6.41226462,20.6915685 6.43281675,20.5967777 6.46336722,20.5025648 C7.42876187,21.2291019 8.9151808,21.6880283 10.6115647,21.6880283 C12.3090596,21.6880283 13.7943676,21.2291019 14.7597623,20.5025648 C14.7914237,20.5979337 14.8130867,20.6938805 14.8130867,20.7892493 C14.8130867,21.7608554 13.0867078,22.8440142 10.6115647,22.8440142 L10.6115647,22.8440142 Z M15.9240127,18.8021097 L15.9240127,17.6536377 C17.1521413,17.5010476 18.2141865,17.1022325 18.9618397,16.5392674 C18.9929456,16.6346362 19.0140532,16.7300051 19.0140532,16.8259519 C19.0140532,17.6443899 17.7881464,18.5391229 15.9240127,18.8021097 L15.9240127,18.8021097 Z M15.9240127,16.48956 L15.9240127,16.165306 C15.9240127,15.8849794 15.8612453,15.6167907 15.7551519,15.3590059 C17.0543798,15.2231775 18.1791924,14.8156925 18.9618397,14.2272957 C18.9929456,14.3226645 19.0140532,14.4180334 19.0140532,14.5139802 C19.0140532,15.3324182 17.7881464,16.2265732 15.9240127,16.48956 L15.9240127,16.48956 Z M14.9014053,14.2544614 C14.005999,13.5146304 12.596234,13.0256484 10.9603955,12.9643812 C10.7698717,12.7487898 10.6493362,12.5233726 10.6232295,12.3002673 L10.6237849,12.1112636 C10.629895,12.0459504 10.6437816,11.9812152 10.6648892,11.915324 C11.6308393,12.6418611 13.1161473,13.1007875 14.8130867,13.1007875 C16.5116925,13.1007875 17.9986669,12.6412831 18.964617,11.9130121 C18.9951675,12.0049129 19.0140532,12.1014378 19.0140532,12.2020085 C19.0140532,13.1620548 17.3287785,14.2284517 14.9014053,14.2544614 L14.9014053,14.2544614 Z M14.8130867,11.9448017 C12.460701,11.9448017 10.7893129,10.9679936 10.6282286,10.0362691 L10.6287841,9.89003685 L10.6121202,9.89003685 C10.6121202,8.91843075 12.3373882,7.83527202 14.8130867,7.83527202 C17.2887852,7.83527202 19.0140532,8.91843075 19.0140532,9.89003685 C19.0140532,10.8622209 17.2887852,11.9448017 14.8130867,11.9448017 L14.8130867,11.9448017 Z" id="Coins"></path>
            </g>
        </g>
    </g>
</svg>