<?xml version="1.0" encoding="UTF-8"?>
<svg width="24px" height="24px" viewBox="0 0 24 24" version="1.1" xmlns="http://www.w3.org/2000/svg" xmlns:xlink="http://www.w3.org/1999/xlink">
    <!-- Generator: Sketch 41.2 (35397) - http://www.bohemiancoding.com/sketch -->
    <title>Coin</title>
    <desc>Created with Sketch.</desc>
    <defs></defs>
    <g id="en" stroke="none" stroke-width="1" fill="none" fill-rule="evenodd">
        <g id="路线详情_web" transform="translate(-870.000000, -1033.000000)" fill="#848484">
            <g id="price" transform="translate(870.000000, 1033.000000)">
                <path d="M24,12.8163462 C23.9954635,13.0930738 23.9928712,13.3337624 23.9928712,13.5165313 C23.9928712,19.296919 18.6177733,24 12.0119893,24 C5.40620528,24 0.0317554613,19.296919 0.0317554613,13.5165313 C0.0317554613,13.5165313 0,9.67194916 0,10.7923739 C0,4.84144478 5.38481895,0 12.0029163,0 C18.3624335,0 23.569033,4.4733328 23.9669484,10.1031293 C23.9792617,10.9307377 23.9961116,11.3799373 24,12.8163462 L24,12.8163462 Z M12.0119893,22.7019548 C16.5510761,22.7019548 20.4265385,20.2468023 21.9670024,16.8018663 C19.8095752,19.6843375 16.1492723,21.5847478 12.0029163,21.5847478 C7.88572354,21.5847478 4.24810304,19.7100796 2.08484325,16.8610731 C3.64474928,20.2776929 7.50141765,22.7019548 12.0119893,22.7019548 L12.0119893,22.7019548 Z M22.6947857,10.7248009 C22.6533092,5.52103612 17.8750844,1.29804521 12.0029163,1.29804521 C6.1054735,1.29804521 1.30715848,5.55707505 1.30715848,10.7923739 C1.30715848,16.0270292 6.1054735,20.286059 12.0029163,20.286059 C17.8925823,20.286059 22.6844166,16.0379696 22.697378,10.8129676 C22.6967299,10.7827206 22.6954338,10.7544043 22.6947857,10.7248009 L22.6947857,10.7248009 Z M15.3774201,13.3150993 C15.3774201,14.507602 14.6191775,15.5565924 12.9581724,15.803073 L12.9581724,17.043842 L12.2893635,17.043842 L12.2893635,17.0399807 L11.6821214,17.0399807 L11.6821214,15.8474781 C10.4002376,15.7490146 9.44238922,15.2425388 8.78265331,14.5629475 L9.60375881,13.4386614 C10.064537,13.9451372 10.7858397,14.4142869 11.6821214,14.55072 L11.6821214,12.1534872 C10.4002376,11.8323546 9.05678719,11.3747888 9.05678719,9.76848202 C9.05678719,8.5084064 10.0768504,7.50768241 11.6821214,7.37189285 L11.6821214,6.09444132 L12.6775579,6.09444132 L12.6775579,6.12340117 L12.9581724,6.12340117 L12.9581724,7.43689164 C13.8395485,7.5861958 14.5939027,7.95044646 15.1784625,8.5084064 L14.3567089,9.58313893 C13.9574974,9.18671064 13.467556,8.92928968 12.9581724,8.78255973 L12.9581724,10.9210844 C14.1668242,11.2550881 15.3774201,11.7782962 15.3774201,13.3150993 L15.3774201,13.3150993 Z M12.9581724,14.5030971 C13.6114276,14.3196847 13.8842654,13.876277 13.8842654,13.4508889 C13.8842654,12.9740166 13.4986634,12.7069423 12.9581724,12.5080846 L12.9581724,14.5030971 L12.9581724,14.5030971 Z M11.6821214,8.64419596 C10.9847973,8.73107554 10.5499419,9.11398922 10.5499419,9.65779101 C10.5499419,10.1391682 11.0223854,10.3862923 11.6821214,10.5845065 L11.6821214,8.64419596 L11.6821214,8.64419596 Z M12.0631869,4.02542032 C7.64334512,4.02542032 4.04784922,7.11189768 4.04784922,10.9056391 C4.04784922,11.0182608 4.0504415,11.1295954 4.0569222,11.2402864 C4.07636432,11.5981015 3.80028623,11.9037889 3.43931088,11.923739 C3.42699754,11.9243826 3.41533227,11.9243826 3.403667,11.9243826 C3.05889342,11.9243826 2.76985391,11.6566648 2.75105987,11.3104336 C2.74393109,11.1765747 2.74004266,11.0414287 2.74004266,10.9056391 C2.74004266,6.3962674 6.9220425,2.72737511 12.0631869,2.72737511 C12.4241622,2.72737511 12.7170902,3.01761725 12.7170902,3.37671949 C12.7170902,3.73517818 12.4241622,4.02542032 12.0631869,4.02542032 L12.0631869,4.02542032 Z" id="Coin"></path>
            </g>
        </g>
    </g>
</svg>