<?xml version="1.0" encoding="UTF-8"?>
<svg width="24px" height="20px" viewBox="0 0 24 20" version="1.1" xmlns="http://www.w3.org/2000/svg" xmlns:xlink="http://www.w3.org/1999/xlink">
    <!-- Generator: Sketch 41.2 (35397) - http://www.bohemiancoding.com/sketch -->
    <title>no_people</title>
    <desc>Created with Sketch.</desc>
    <defs></defs>
    <g id="en" stroke="none" stroke-width="1" fill="none" fill-rule="evenodd">
        <g id="路线详情_web" transform="translate(-870.000000, -959.000000)" fill="#848484">
            <g id="person_gray" transform="translate(870.000000, 959.000000)">
                <path d="M12.0028389,0 C14.6202981,0 16.874379,1.96010408 17.2775018,4.59670425 C17.669269,4.46371784 18.0894251,4.39433362 18.5322924,4.39433362 C19.6962385,4.39433362 20.7636622,4.88002313 21.535841,5.67215958 C22.3023421,6.44116797 22.7792761,7.52240532 22.7792761,8.72506505 C22.7792761,9.8699046 22.3364088,10.8991038 21.6266856,11.6738942 L22.648687,12.7030934 C23.0915543,13.1598728 23.4265436,13.6802544 23.6536551,14.2295461 C23.8921221,14.7961839 24,15.3917317 24,16.0450997 L24,17.3344897 C24,17.6582827 23.8977999,18.0225499 23.6990774,18.2943047 C23.5003549,18.5949696 23.1880767,18.8146863 22.7906317,18.8551605 C22.7622427,18.8609425 22.728176,18.8609425 22.7054649,18.8609425 L21.7288857,18.8609425 L21.7288857,19.2194276 C21.7288857,19.6530789 21.3825408,20 20.9510291,20 L3.07168204,20 C2.62881476,20 2.27111427,19.670425 2.27111427,19.2194276 L2.27111427,18.8609425 L1.29453513,18.8609425 C1.2661462,18.8609425 1.23207949,18.8609425 1.19801278,18.8551605 C0.806245564,18.8146863 0.499645138,18.5949696 0.289567069,18.2943047 C0.102200142,18.0225499 0,17.6582827 0,17.3344897 L0,16.0450997 C0,15.3917317 0.113555713,14.7961839 0.346344925,14.2295461 C0.766501065,13.1887829 1.60113556,12.4602486 2.36763662,11.6738942 C1.65791341,10.8991038 1.22072392,9.8699046 1.22072392,8.72506505 C1.22072392,7.52240532 1.69765791,6.44116797 2.46415898,5.67215958 C3.24201561,4.88002313 4.30376153,4.39433362 5.46770759,4.39433362 C5.90489709,4.39433362 6.32505323,4.46371784 6.72249823,4.59670425 C7.11994322,1.96010408 9.37402413,0 12.0028389,0 L12.0028389,0 Z M12.0028389,18.4215091 L14.41022,18.4215091 L14.41022,14.825094 C14.41022,14.5649032 14.6089425,14.3567505 14.8701207,14.3567505 C15.1312988,14.3567505 15.3413769,14.5649032 15.3413769,14.825094 L15.3413769,16.9297485 L17.3456352,16.9297485 C17.3797019,16.8661463 17.3910575,16.8083261 17.3910575,16.7331599 L17.3910575,15.0505927 C17.3910575,12.7782596 15.9034776,11.7259324 14.4613201,10.2457358 C13.7232079,10.638913 12.8828957,10.8644117 12.0028389,10.8644117 C11.1171043,10.8644117 10.2711143,10.638913 9.53867991,10.2457358 C8.08516678,11.7259324 6.6146203,12.7782596 6.6146203,15.0505927 L6.6146203,16.7331599 C6.6146203,16.8083261 6.62597587,16.8661463 6.64300923,16.9297485 L8.65294535,16.9297485 L8.65294535,14.825094 C8.65294535,14.5649032 8.86302342,14.3567505 9.12987935,14.3567505 C9.3853797,14.3567505 9.58977999,14.5649032 9.58977999,14.825094 C9.58977999,16.0219717 9.59545777,17.2246314 9.59545777,18.4215091 L12.0028389,18.4215091 L12.0028389,18.4215091 Z M12.0028389,9.28013877 L12.0028389,9.28013877 C14.0638751,9.28013877 15.7842441,7.59178953 15.7842441,5.42931483 C15.7842441,3.30731425 14.0809084,1.57270888 12.0028389,1.57270888 C9.91909155,1.57270888 8.21575586,3.30731425 8.21575586,5.42931483 C8.21575586,7.59178953 9.9418027,9.28013877 12.0028389,9.28013877 L12.0028389,9.28013877 Z M3.83818311,18.4215091 L6.0979418,18.4215091 C5.81405252,18.3116508 5.56990774,18.1150622 5.40525195,17.8664354 C5.17246274,17.5426424 5.04755145,17.1263371 5.04755145,16.7331599 L5.04755145,15.0505927 C5.04755145,14.3451865 5.16110717,13.6802544 5.38254081,13.0442324 C4.7523066,13.0326684 4.16181689,12.8823359 3.62810504,12.6221451 C2.98651526,13.2812952 2.13484741,13.9577913 1.77714691,14.836658 C1.63520227,15.2009251 1.55571327,15.6056664 1.55571327,16.0450997 L1.55571327,17.2766696 L2.90134847,17.2766696 L2.90134847,15.8716392 C2.90134847,15.6114484 3.11710433,15.3917317 3.37260468,15.3917317 C3.62810504,15.3917317 3.83818311,15.6114484 3.83818311,15.8716392 L3.83818311,18.4215091 L3.83818311,18.4215091 Z M6.7338538,6.29661752 L6.7338538,6.29661752 C6.59190916,6.22145129 6.43293116,6.15206707 6.27963094,6.10581093 C6.02413059,6.02486268 5.75727466,5.97860653 5.46770759,5.97860653 C4.72959546,5.97860653 4.05961675,6.28505348 3.5656494,6.78230703 C3.08303762,7.28534258 2.78211498,7.97340272 2.78211498,8.72506505 C2.78211498,9.48829141 3.08303762,10.1647875 3.5656494,10.650477 C4.05961675,11.1535126 4.72959546,11.4541775 5.46770759,11.4541775 C5.77998581,11.4541775 6.0581973,11.4194854 6.3364088,11.3154091 C6.90986515,10.5984389 7.61958836,9.96241688 8.26685593,9.32061289 C7.45493258,8.48222029 6.92122072,7.42989303 6.7338538,6.29661752 L6.7338538,6.29661752 Z M20.1618169,18.4215091 L20.1618169,15.8716392 C20.1618169,15.6114484 20.3605394,15.3917317 20.6217175,15.3917317 C20.8828957,15.3917317 21.0929737,15.6114484 21.0929737,15.8716392 L21.0929737,17.2766696 L22.4499645,17.2766696 L22.4499645,16.0450997 C22.4499645,15.6056664 22.3704755,15.2009251 22.2228531,14.836658 C22.0752307,14.4666088 21.8481192,14.1312518 21.535841,13.8248049 L20.3605394,12.6221451 C19.8381831,12.8823359 19.2420156,13.0326684 18.6174592,13.0442324 C18.8445706,13.6802544 18.9524485,14.3451865 18.9524485,15.0505927 L18.9524485,16.7331599 C18.9524485,17.1263371 18.833215,17.5426424 18.6004258,17.8664354 C18.4244145,18.1150622 18.1916253,18.3116508 17.9020582,18.4215091 L20.1618169,18.4215091 L20.1618169,18.4215091 Z M17.271824,6.29661752 L17.271824,6.29661752 C17.0674237,7.50505927 16.5791341,8.45331021 15.7274663,9.32061289 C16.3747339,9.96241688 17.0901348,10.5984389 17.6635912,11.3154091 C17.748758,11.3501012 17.9134138,11.4137034 17.987225,11.4137034 C18.1575586,11.4483955 18.3335699,11.4541775 18.5322924,11.4541775 C19.2647268,11.4541775 19.9403833,11.1535126 20.4286728,10.650477 C20.9169624,10.1647875 21.217885,9.48829141 21.217885,8.72506505 C21.217885,7.97340272 20.9169624,7.28534258 20.4286728,6.78230703 C19.9403833,6.28505348 19.2647268,5.97860653 18.5322924,5.97860653 C18.2370476,5.97860653 17.9701916,6.02486268 17.7146913,6.10581093 C17.5557133,6.15206707 17.4080908,6.22145129 17.271824,6.29661752 L17.271824,6.29661752 Z" id="no_people"></path>
            </g>
        </g>
    </g>
</svg>