<?xml version="1.0" encoding="UTF-8"?>
<svg width="120px" height="40px" viewBox="0 0 120 40" version="1.1" xmlns="http://www.w3.org/2000/svg" xmlns:xlink="http://www.w3.org/1999/xlink">
    <!-- Generator: Sketch 43.2 (39069) - http://www.bohemiancoding.com/sketch -->
    <title>logo120_en copy 2</title>
    <desc>Created with Sketch.</desc>
    <defs></defs>
    <g id="Page-1" stroke="none" stroke-width="1" fill="none" fill-rule="evenodd">
        <g id="首页改版" transform="translate(-241.000000, -3885.000000)" fill="#848484">
            <g id="foot" transform="translate(-5.000000, 3521.000000)">
                <g id="Group-10">
                    <g id="logo120_en-copy-2" transform="translate(246.000000, 364.000000)">
                        <path d="M27.0730071,27.4196079 L21.3999803,29.9868697 L21.3999803,24.8075338 C21.3999803,23.8832933 20.8326282,23.0442617 19.9487317,22.6615258 L10.6252268,18.6241033 C10.1982322,18.4391236 9.92403176,18.0337467 9.92403176,17.5871275 L9.92403176,12.5190237 L15.6000197,10.0823467 L15.6000197,14.9881119 C15.6000197,15.9109433 16.1656938,16.7490354 17.0475176,17.1325229 L26.3735888,21.1887346 C26.799695,21.37409 27.0730071,21.7789972 27.0730071,22.2248649 L27.0730071,27.4196079 L27.0730071,27.4196079 Z M31.5367095,18.4938941 L22.1069988,14.4676512 C21.676747,14.2839868 21.3999803,13.8770128 21.3999803,13.4282329 L21.3999803,10.0159269 L32.3334502,14.742819 C32.639236,14.875001 32.9863788,14.6622133 32.9863788,14.3426091 L32.9863788,10.3422013 C32.9863788,10.1685892 32.8789886,10.0113236 32.7123758,9.9406762 L18.7953725,4.03805018 C18.6748546,3.98694357 18.5369647,3.98731935 18.4168417,4.03917753 L4.27123928,10.1400296 C4.10600837,10.2113346 4,10.3679425 4,10.5404273 L4,19.0867872 C4,20.0111217 4.56745074,20.8501533 5.45144602,21.2328892 L14.8986273,25.3228275 C15.3258193,25.5078072 15.6000197,25.9131841 15.6000197,26.3598033 L15.6000197,29.7198753 L4.70524188,25.1389753 C4.39994963,25.0105511 4.05675494,25.2233387 4.05675494,25.5410641 L4.05675494,29.4077867 C4.05675494,29.5797079 4.16217109,29.73594 4.32641496,29.8075269 L18.4565208,35.9601431 C18.5788153,36.0134105 18.7194689,36.0133166 18.8416648,35.9596734 L32.7312283,29.873383 C32.8950774,29.8016083 33,29.6456579 33,29.4740186 L33,20.6450692 C33,19.7163193 32.4271205,18.8740935 31.5367095,18.4938941 L31.5367095,18.4938941 Z" id="Fill-1-Copy-4"></path>
                        <path d="M35.3589698,29.9413542 C35.3589698,30.5063104 34.8756555,31.2420058 34.345129,31.484661 L19.6293784,38.2160928 L19.6292766,38.2162885 C19.0383104,38.4865359 17.9616896,38.4867316 17.3705199,38.2160928 L2.65497271,31.4848567 C2.12424272,31.2420058 1.64103015,30.5063104 1.64103015,29.9413542 L1.64103015,10.0586947 C1.64103015,9.49373854 2.12424272,8.75804315 2.65476921,8.51529009 L17.3707234,1.78376045 C17.6662065,1.64853887 18.0829761,1.58092808 18.4999491,1.58092808 C18.9168204,1.58092808 19.3337935,1.64853887 19.6293784,1.78385829 L34.3450273,8.51519225 C34.8756555,8.75804315 35.3589698,9.49373854 35.3589698,10.0586947 L35.3589698,29.9413542 Z M35.0500557,7.09017992 L20.3344068,0.358943814 C19.2886163,-0.119713168 17.7112819,-0.119517478 16.665695,0.358748124 L1.94984256,7.09037561 C0.856432962,7.59055846 0,8.89443887 0,10.0586947 L0,29.9413542 C0,31.1056101 0.856432962,32.4093926 1.94984256,32.9097712 L16.6655932,39.6411051 C17.1884885,39.8804336 17.8442697,40 18.4999491,40 C19.1556286,40 19.8114098,39.8804336 20.3342033,39.641203 L35.0501574,32.9096733 C36.1433635,32.4093926 37,31.1056101 37,29.9413542 L37,10.0586947 C37,8.89443887 36.1433635,7.59055846 35.0500557,7.09017992 L35.0500557,7.09017992 Z" id="Fill-3-Copy"></path>
                        <g id="Group-7" transform="translate(42.352941, 10.000000)">
                            <path d="M50.4249467,15.3184047 L47.981589,11.2018427 C47.530969,10.4426031 47.530969,9.51706473 47.981589,8.75801627 L50.4249467,4.64145425 L51.8789258,2.19170227 L53.1799292,0 L47.8875748,0 L42.6908556,8.75514905 C42.2404381,9.51419751 42.2402355,10.4393535 42.690653,11.198402 L47.8863591,19.9579475 L53.1787135,19.9579475 L51.8789258,17.7681567 L50.4249467,15.3184047 Z" id="Fill-6"></path>
                            <path d="M41.9285644,11.3618335 L41.9285644,17.5492923 C41.7733598,19.0272481 40.8119424,19.8304518 39.0424887,19.9600501 L37.3109244,19.9600501 L37.3109244,0 L41.9285644,0 L41.9285644,8.55406142 L41.9285644,11.3618335 Z" id="Fill-8"></path>
                            <path d="M77.5421841,0 L77.5421841,16.8913611 C77.5421841,18.5860787 76.0859762,19.9598589 74.2893718,19.9598589 L72.9243415,19.9598589 L72.9243415,4.82151561 L68.979795,17.7740823 C68.585705,19.0683449 67.3308983,19.9598589 65.903462,19.9598589 L63.6815647,19.9598589 L59.0714215,4.82151561 L59.0714215,17.3025203 C59.0714215,18.7701542 57.8103337,19.9598589 56.2546408,19.9598589 L54.4537815,19.9598589 L54.4537815,0 L59.0714215,0 C61.3026392,0.129598303 62.6879312,1.12567021 63.2272975,2.98917147 L65.9978815,13.8102474 L68.7684655,3.08531888 C69.3836105,1.15701847 70.7689025,0.129598303 72.9243415,0 L77.5421841,0 Z" id="Fill-10"></path>
                            <path d="M33.2773109,16.3846279 C33.2773109,19.7692844 28.6724471,20 28.6724471,20 L28.6724471,13.0420239 C28.6724471,12.4454512 28.2072325,11.9041202 27.4823631,11.6569659 L17.7178641,9.05123721 C17.3676508,8.93196089 17.1428571,8.67027936 17.1428571,8.38202827 L17.1428571,0 L21.611282,0 L21.611282,5.15220155 C21.611282,5.74762738 22.0752946,6.28857604 22.7983608,6.53611262 L32.7037065,9.15388365 C33.0531183,9.27354226 33.2773109,9.53484149 33.2773109,9.82251914 L33.2773109,16.3846279 Z" id="Fill-13"></path>
                            <polygon id="Fill-15" points="22.1848739 4 32.8727148 4 32.8727148 0 22.1848739 0"></polygon>
                            <path d="M27.6485453,20 L20.8298775,20 C18.7935773,20 17.1428571,18.2770435 17.1428571,16.1516337 L17.1428571,16 L27.6485453,16 L27.6485453,20 Z" id="Fill-17"></path>
                            <path d="M16.1344538,16.3846279 C16.1344538,19.7692844 11.52959,20 11.52959,20 L11.52959,13.4266135 C11.52959,12.8300408 11.0643753,12.2887098 10.339506,12.0415556 L0.575006921,9.43601801 C0.224793646,9.31655054 0,9.05486902 0,8.76680907 L0,0 L4.46842486,0 L4.46842486,5.15220155 C4.46842486,5.74762738 4.93243742,6.28857604 5.65550361,6.53611262 L15.5608493,9.15388365 C15.9102612,9.27354226 16.1344538,9.53484149 16.1344538,9.82251914 L16.1344538,16.3846279 Z" id="Fill-18"></path>
                            <polygon id="Fill-19" points="5.04201681 4 15.7298576 4 15.7298576 0 5.04201681 0"></polygon>
                            <path d="M10.5056882,20 L3.6870204,20 C1.65072019,20 0,18.2770435 0,16.1516337 L0,16 L10.5056882,16 L10.5056882,20 Z" id="Fill-20"></path>
                        </g>
                    </g>
                </g>
            </g>
        </g>
    </g>
</svg>